<svg xmlns="http://www.w3.org/2000/svg" xmlns:xlink="http://www.w3.org/1999/xlink" width="94" height="38"><defs><path id="a" d="M.06.155h46.808v2.697H.06z"/><path id="c" d="M.06.216h49.609v2.677H.06z"/><path id="e" d="M.06.261h75.743v2.678H.06z"/><path id="g" d="M.06.31h64.928V3H.06z"/></defs><g fill="none" fill-rule="evenodd"><path fill="#4C78AF" d="M93.737 2.847H78.134l.962-2.691h14.641v2.691M52.142.156L66.629.154l.949 2.697c.007-.004-15.431.003-15.431 0 0-.004-.009-2.695-.005-2.695"/><mask id="b" fill="#fff"><use xlink:href="#a"/></mask><path fill="#4C78AF" d="M40.637.156c2.387.23 4.463 1.08 6.231 2.695 0 0-26.259.002-26.259 0V.155l20.028.001M.06 2.846h18.185V.156H.06z" mask="url(#b)"/><path fill="#4C78AF" d="M93.737 7.894H76.346s.948-2.676.943-2.677h16.448v2.677m-24.367.003H52.141V5.216h16.286l.943 2.681"/><g transform="translate(0 5)"><mask id="d" fill="#fff"><use xlink:href="#c"/></mask><path fill="#4C78AF" d="M48.913.216c.346.884.756 1.639.756 2.677H20.614V.216h28.299M.06 2.893h18.185V.216H.06z" mask="url(#d)"/></g><path fill="#4C78AF" d="M74.567 12.954l.955-2.689 13.058.004v2.679l-14.013.006m-4.359-2.69l.951 2.69H57.278v-2.69h12.93m-20.309-.001c0 .923-.116 1.884-.384 2.691H41.56v-2.691h8.339m-44.812 2.69h7.841v-2.677H5.087zm20.805 0h7.827v-2.69h-7.827zm39.096 2.906s.003 2.036.001 2.04h-7.711v-2.677h14.695l.912 2.496c.004.001.88-2.502.882-2.496h14.808v2.677h-7.673l-.004-2.04-.709 2.04-14.492-.004-.709-2.036m-39.096-.637h22.469v-.002c-.49.897-1.382 1.987-2.228 2.679 0 0-20.242.004-20.242 0l.001-2.677M5.087 17.899h7.841v-2.678H5.087zm75.815 5.048h7.673V20.27h-7.673zM64.988 20.27h-7.71v2.676c-.004-.001 7.713.002 7.713 0 0-.001.008-2.676-.003-2.676m14.365 0c-.036-.005-.899 2.675-.935 2.676l-10.93.005c-.008-.004-.961-2.686-.962-2.681h12.827m-53.463-.001h20.204a13.19 13.19 0 0 1 2.408 2.677c.038-.001-22.611.002-22.611 0l-.001-2.677m-12.963 2.677v-2.677H5.1s.002 2.676 0 2.676l7.827.001m67.975 5.049h7.672v-2.678h-7.672zm-23.624-.001h7.71v-2.677h-7.71zm19.345.014c.002-.013.946-2.694.961-2.691h-9.291c-.017-.002.952 2.678.952 2.678s7.376.024 7.378.013m-50.732-.014v-2.678h7.944s.007 2.679 0 2.679-7.944-.004-7.944-.001m23.726-2.678c.384.807.424 1.768.5 2.691H41.7v-2.691h7.917M5.1 27.993h7.827v-2.677H5.1zm75.802 4.947h12.834v-2.679H80.902zm-28.761 0h12.847v-2.679H52.141z"/><g transform="translate(0 30)"><mask id="f" fill="#fff"><use xlink:href="#e"/></mask><path fill="#4C78AF" d="M74.896 2.939h-3.918L70.037.261h5.766l-.907 2.678M.001.261v2.678h18.23c.008.003-.008-2.676 0-2.676L.001.261" mask="url(#f)"/></g><path fill="#4C78AF" d="M49.783 30.261c-.192.883-.367 1.96-1.013 2.678H20.613v-2.678h29.17m23.337 7.732h-.36l-.916-2.683h2.217l-.941 2.683m7.782.006h12.834V35.31H80.902zm-60.293-.006v-2.68l26.413.003c-1.768 1.692-4.194 2.646-6.807 2.683l-19.602-.006"/><g transform="translate(0 35)"><mask id="h" fill="#fff"><use xlink:href="#g"/></mask><path fill="#4C78AF" d="M52.141 2.999h12.847V.31H52.141zM18.231.321s-.008 2.672 0 2.672-18.225.011-18.23.005C-.003 2.993.006.313.001.313c-.004 0 18.222.016 18.23.008" mask="url(#h)"/></g></g></svg>