<svg xmlns="http://www.w3.org/2000/svg" width="76" height="65"><g fill="none" fill-rule="evenodd"><path fill="#292D78" d="M35 65c17.673 0 32-14.551 32-32.5C67 14.551 52.673 0 35 0 17.327 0 3 14.551 3 32.5 3 50.449 17.327 65 35 65"/><path fill="#FFFFFE" d="M36 45.272C35.153 45.091 32.753 43 32.753 43l-.753.681s1.74 1.955 2.776 3.319L36 45.272M26.5 51a.5.5 0 1 0 .001-.999.5.5 0 0 0-.001.999m0 3a.5.5 0 1 0 0-1 .5.5 0 0 0 0 1m13-2a.5.5 0 1 0 .001-.999.5.5 0 0 0 0 .999m9.714-6.57a.215.215 0 1 0 0-.43.215.215 0 0 0 0 .43m0 4a.215.215 0 1 0 0-.43.215.215 0 0 0 0 .43M49.5 56a.5.5 0 1 0 0-.999.5.5 0 0 0 0 .999m1-11a.5.5 0 1 0 0-1 .5.5 0 0 0 0 1m-.27.46a.23.23 0 1 0 0-.46.23.23 0 0 0 0 .46m4-3a.23.23 0 1 0 0-.46.23.23 0 0 0 0 .46M57.5 46a.5.5 0 1 0-.001-1.001A.5.5 0 0 0 57.5 46m2 0a.5.5 0 1 0 0-1 .5.5 0 0 0 0 1m-4 3a.5.5 0 1 0 0-1 .5.5 0 0 0 0 1m2.7 1.399a.2.2 0 1 0 0-.399.2.2 0 0 0 0 .399M37.5 8a.5.5 0 1 0 0-1 .5.5 0 0 0 0 1m-2.25-3c.138 0 .25-.224.25-.5s-.112-.5-.25-.5-.25.224-.25.5.112.5.25.5m-.097 4.307a.153.153 0 1 0 0-.306.153.153 0 0 0 0 .306M29.5 10a.5.5 0 1 0 0-1 .5.5 0 0 0 0 1"/><path fill="#FFFFFE" d="M29.154 9.307a.154.154 0 0 0 0-.307.154.154 0 0 0 0 .307M42.5 15a.5.5 0 1 0 0-1 .5.5 0 0 0 0 1m2.733 16s5.14 1.49 3.412 5.667c0 0-2.235 4.259-8.864 2.185L38.428 40l-.05-4.046 1.932 1.38s4.433 1.138 4.51-1.26c0 0-.225-.888-3.627-1.87 0 0-3.962-1.148-3.06-4.445 0 0 .628-5.13 8.492-3.055L47.998 26l-.02 3.926-1.696-1.574s-3.55-1.083-4.08.546c-.576 1.776 1.736 1.658 3.031 2.102m6.502-4h5.434l4.392 10.594L63 39h-7.414l1.188-1.19-.612-1.587h-3.995l-.468 1.659.828 1.118H49l1.206-1.208 2.915-9.304L51.735 27"/><path fill="#292D78" d="M56 34l-1.699-4L53 34h3"/><path fill="#FFFFFE" d="M34.5 7a.5.5 0 1 0 0-1 .5.5 0 0 0 0 1m-10 9a.5.5 0 1 0 0-1.001.5.5 0 0 0 0 1.001m1 2a.5.5 0 1 0 0-1 .5.5 0 0 0 0 1m1.653 2.307a.153.153 0 1 0 0-.306.153.153 0 0 0 0 .306m3.001-10.001a.153.153 0 1 0 0-.306.153.153 0 0 0 0 .306M29.25 12c.138 0 .25-.224.25-.5s-.112-.5-.25-.5c-.137 0-.25.224-.25.5s.113.5.25.5m5-1c.138 0 .25-.223.25-.5 0-.276-.112-.5-.25-.5s-.25.224-.25.5c0 .277.112.5.25.5m3 2c.138 0 .25-.223.25-.5 0-.276-.112-.5-.25-.5s-.25.224-.25.5c0 .277.112.5.25.5M56.5 51a.5.5 0 1 0-.001-1.001A.5.5 0 0 0 56.5 51m-.5-1l.525-1 .475.989L56 50m0 1l.525 1 .475-.99-1-.01"/><path fill="#FFFFFE" d="M56 51l-1-.524.989-.476.011 1m1 0l1-.524-.989-.476L57 51m-1.5-6a.5.5 0 1 0-.002-1.001A.5.5 0 0 0 55.5 45m-10 12a.5.5 0 1 0 0-1 .5.5 0 0 0 0 1m-11-3a.5.5 0 1 0 0-1 .5.5 0 0 0 0 1m-12 0a.5.5 0 1 0 0-1 .5.5 0 0 0 0 1m1.746-8.508a.246.246 0 0 0 0-.492.246.246 0 1 0 0 .492m-4.001 3a.246.246 0 1 0 0-.492.246.246 0 0 0 0 .492m5-8a.246.246 0 1 0 0-.492.246.246 0 0 0 0 .492m-13.999 6a.246.246 0 1 0-.001-.493.246.246 0 0 0 .001.492m4 0a.246.246 0 1 0 0-.492.246.246 0 0 0 0 .492M14.5 48a.5.5 0 1 0 .002-.998.5.5 0 0 0-.002.998m1 2a.5.5 0 1 0 0-1 .5.5 0 0 0 0 1"/><path fill="#D8232A" d="M63.793 14.198C69.57 9.344 74.327 5.165 76 2c0 0-3.667 12.509-20.8 25.58 0 0-26.163 18.199-33.312 23.307 0 0-6.596 4.75-12.197 12.113l-.129-1.202s4.194-6.291 13.745-13.165c8.401-6.047 11.534-8.076 11.534-8.076s19.955-12.732 24.08-18.274c0 0-14.316 8.377-39.004 13.24 0 0-11.424 2.931-18.885 7.682H0s6.513-5.643 21.62-10.02c0 0 25.564-7.737 42.173-18.987"/><path fill="#FFFFFE" d="M9.141 27h4.941l4.236 7.29v-6.388L17.54 27h3.106l-.777 1.227v9.492L21 38.982h-4.941l-4.227-7.48v6.262l.91 1.236H9l1.059-1.317v-9.24L9.14 27m16.65 0h5.678l4.064 10.594L37 39h-7.284l1.21-1.19-.623-1.587h-4.074l-.248 1.66.845 1.117H23l1.367-1.208 2.835-9.304L25.789 27"/><path fill="#292D78" d="M30 34l-1.7-4-1.3 4h3"/><path fill="#D8232A" d="M28.17 30.164l.57-.164L30 32.414 27 33l1.17-2.836"/><path fill="#FFFFFE" d="M38.22 31s-1.38-3.156 2.761-4.319c0 0 1.972-1.329 6.112 0L48 26v3.522s-1.893-1.678-3.273-1.844c-1.38-.166-2.76.166-2.563 1.827L38.22 31"/><path fill="#FFFFFE" d="M41.159 49.488c1.782 1.12 3.5 1.82 5.006 2.037 1.434.205 2.673-.029 3.588-.76.12-.096.234-.2.343-.31 4.308-4.366-.828-18.783-8.843-27.712l-.006-.008c-.003-.002-.743-.913-1.247-1.449l.27-.286a35.116 35.116 0 0 1 1.258 1.464v.001c8.137 9.066 13.28 23.773 8.83 28.282-.118.12-.244.233-.377.34-1 .8-2.334 1.058-3.867.838-1.558-.224-3.324-.943-5.149-2.089l.194-.348zm.373-27.02l.002.004-.002-.003z"/><path fill="#FFFFFE" d="M40.644 23.442l-.191-.226-.193-.225c-4.147-4.778-7.746-7.68-10.782-9.197-3.536-1.766-6.292-1.64-8.25-.413-1.695 1.062-2.337 4.136-1.197 8.85.963 3.982 3.2 9.104 7.149 15.144l-.007-.01c.01.014 3.625 4.972 4.02 5.268l-.277.367c-.458-.341-4.108-5.35-4.118-5.365l-.006-.01c-3.98-6.09-6.239-11.261-7.212-15.287-1.192-4.928-.458-8.18 1.401-9.346 2.09-1.31 5.003-1.46 8.704.39 3.086 1.54 6.734 4.48 10.925 9.309l.195.226h.001l.194.227-.356.298M34.33 46.153c1.04.746 2.184 1.058 2.554.697.37-.36-.174-1.258-1.214-2.003-1.04-.746-2.184-1.058-2.554-.697-.37.36.174 1.257 1.214 2.003M42.5 8a.5.5 0 1 0 0-1 .5.5 0 0 0 0 1M42 7l.525-2L43 6.989 42 7m0 1l.525 2L43 8.01 42 8"/><path fill="#FFFFFE" d="M43 8l-3-.525L42.984 7 43 8"/><path fill="#FFFFFE" d="M42 8l3-.525L42.015 7 42 8m-14.5 9a.5.5 0 1 0 0-1 .5.5 0 0 0 0 1m-.5-2l.525-2L28 14.99 27 15m0 2l.525 2L28 17.01 27 17"/><path fill="#FFFFFE" d="M28 17l-3-.525L27.984 16 28 17"/><path fill="#FFFFFE" d="M27 17l3-.525L27.015 16 27 17m-3.5 40a.5.5 0 1 0 0-1 .5.5 0 0 0 0 1m.5-1l.524-2L25 55.99 24 56m0 2l.524 2L25 58.01 24 58m0 0l-3-.525L23.984 57 24 58m1 0l3-.525L25.015 57 25 58m33.5-14a.5.5 0 1 0 0-1 .5.5 0 0 0 0 1m-.5-1l.524-2L59 42.99 58 43m0 1l.524 2L59 44.01 58 44"/><path fill="#FFFFFE" d="M60 44l-3-.524L59.985 43 60 44"/><path fill="#FFFFFE" d="M59 44l3-.524L59.015 43 59 44"/></g></svg>