<svg xmlns="http://www.w3.org/2000/svg" xmlns:xlink="http://www.w3.org/1999/xlink" width="55" height="55"><defs><path id="a" d="M26.88 5.615c0 8.22-3.055 15.144-8.35 19.845H9.483v-6.777c2.965-1.914 4.937-4.773 5.587-8.148H0V.092h26.37c.333 1.767.51 3.606.51 5.523z"/><path id="c" d="M25.28 23A28.096 28.096 0 0 1 .186 7.65V.428h9.382c2.209 6.586 8.399 11.487 15.712 11.487 3.778 0 6.995-.988 9.51-2.66l9.073 6.994C39.217 20.505 32.862 23 25.28 23z"/><path id="e" d="M11.892 17.733l-9.021 7.136A28.006 28.006 0 0 1 0 12.5C0 8.057 1.044 3.85 2.871.131h9.021v7.136a16.858 16.858 0 0 0-.846 5.233c0 1.815.306 3.58.846 5.233z"/><path id="g" d="M25.096 11.084c-7.257 0-13.4 4.901-15.592 11.487l-9.31-7.22C4.779 6.245 14.204 0 25.096 0c7.511 0 13.818 2.762 18.645 7.257l-7.994 7.992c-2.886-2.76-6.56-4.165-10.65-4.165z"/></defs><g fill="none" fill-rule="evenodd"><g transform="translate(28 22)"><mask id="b" fill="#fff"><use xlink:href="#a"/></mask><path fill="#318AF5" d="M-.062 25.76H27.19V-.16H-.062z" mask="url(#b)"/></g><g transform="translate(3 32)"><mask id="d" fill="#fff"><use xlink:href="#c"/></mask><path fill="#3DA751" d="M.133 23.248h43.805V.212H.133z" mask="url(#d)"/></g><g transform="translate(0 15)"><mask id="f" fill="#fff"><use xlink:href="#e"/></mask><path fill="#FDB900" d="M-.06 25.23h12.24V-.107H-.06z" mask="url(#f)"/></g><g transform="translate(3)"><mask id="h" fill="#fff"><use xlink:href="#g"/></mask><path fill="#EA3E36" d="M.141 22.912h43.842V-.124H.14z" mask="url(#h)"/></g></g></svg>